<?xml version="1.0" standalone="no"?>
<!DOCTYPE svg PUBLIC "-//W3C//DTD SVG 20010904//EN" "http://www.w3.org/TR/2001/REC-SVG-20010904/DTD/svg10.dtd">
<!-- Created using Krita: https://krita.org -->
<svg xmlns="http://www.w3.org/2000/svg" 
    xmlns:xlink="http://www.w3.org/1999/xlink"
    xmlns:krita="http://krita.org/namespaces/svg/krita"
    xmlns:sodipodi="http://sodipodi.sourceforge.net/DTD/sodipodi-0.dtd"
    width="259.2pt"
    height="60pt"
    viewBox="0 0 259.2 60">
<defs/>
<g id="group0" transform="matrix(0.692227997806933 0 0 0.692227997806933 30.1846196216028 29.4250624479201)" fill="none">
  <circle id="shape0" transform="translate(-39, -39)" r="39" cx="39" cy="39" fill="#ffffff" stroke-opacity="0" stroke="#000000" stroke-width="0" stroke-linecap="square" stroke-linejoin="bevel"/>
  <circle id="shape1" transform="translate(-36, -36)" r="36" cx="36" cy="36" fill="#002868" stroke-opacity="0" stroke="#000000" stroke-width="0" stroke-linecap="square" stroke-linejoin="bevel"/>
  <g id="d" transform="matrix(0.951056516295153 0.309016994374947 -0.309016994374947 0.951056516295153 -5.71680453329862 17.5944832812159)" fill="none">
   <g id="b" fill="none">
    <path id="a" transform="matrix(0.951056516295154 0.309016994374947 -0.309016994374947 0.951056516295154 -1.70530256582424e-13 -17.0000000000001)" fill="#ffffff" stroke-opacity="0" stroke="#000000" stroke-width="0" stroke-linecap="square" stroke-linejoin="bevel" d="M0 0L0 17L8.5 17" sodipodi:nodetypes="ccc"/>
    <g id="group1" transform="matrix(-1 1.11022302462516e-16 1.11022302462516e-16 1 -4.9737991503207e-14 1.4210854715202e-14)" fill="none">
     <path id="a_49889c4a" transform="matrix(0.951056516295154 0.309016994374947 -0.309016994374947 0.951056516295154 5.32907051820075e-14 -17.0000000000001)" fill="#ffffff" stroke-opacity="0" stroke="#000000" stroke-width="0" stroke-linecap="square" stroke-linejoin="bevel" d="M0 0L0 17L8.5 17" sodipodi:nodetypes="ccc"/>
    </g>
   </g>
   <g id="group2" transform="matrix(0.309016994374947 0.951056516295154 -0.951056516295154 0.309016994374947 6.03961325396085e-14 0)" fill="none">
    <g id="b_6f254b5f" fill="none">
     <path id="a_63b5733c" transform="matrix(0.951056516295153 0.309016994374947 -0.309016994374947 0.951056516295153 -7.105427357601e-14 -17)" fill="#ffffff" stroke-opacity="0" stroke="#000000" stroke-width="0" stroke-linecap="square" stroke-linejoin="bevel" d="M0 0L0 17L8.5 17" sodipodi:nodetypes="ccc"/>
     <g id="group3" transform="matrix(-1 0 0 1 4.9737991503207e-14 0)" fill="none">
      <path id="a_38b2a54e" transform="matrix(0.951056516295153 0.309016994374947 -0.309016994374947 0.951056516295153 -6.3948846218409e-14 -17)" fill="#ffffff" stroke-opacity="0" stroke="#000000" stroke-width="0" stroke-linecap="square" stroke-linejoin="bevel" d="M0 0L0 17L8.5 17" sodipodi:nodetypes="ccc"/>
     </g>
    </g>
   </g>
   <g id="group4" transform="matrix(-0.809016994374947 0.587785252292473 -0.587785252292473 -0.809016994374947 -5.6843418860808e-14 -2.1316282072803e-14)" fill="none">
    <g id="b_1d03b2f4" fill="none">
     <path id="a_21848099" transform="matrix(0.951056516295154 0.309016994374948 -0.309016994374948 0.951056516295154 7.105427357601e-15 -17)" fill="#ffffff" stroke-opacity="0" stroke="#000000" stroke-width="0" stroke-linecap="square" stroke-linejoin="bevel" d="M0 0L0 17L8.5 17" sodipodi:nodetypes="ccc"/>
     <g id="group5" transform="matrix(-1 5.55111512312578e-17 5.55111512312578e-17 1 -5.32907051820075e-14 -2.1316282072803e-14)" fill="none">
      <path id="a_3f8206da" transform="matrix(0.951056516295154 0.309016994374948 -0.309016994374948 0.951056516295154 7.105427357601e-15 -16.9999999999999)" fill="#ffffff" stroke-opacity="0" stroke="#000000" stroke-width="0" stroke-linecap="square" stroke-linejoin="bevel" d="M0 0L0 17L8.5 17" sodipodi:nodetypes="ccc"/>
     </g>
    </g>
   </g>
   <g id="group6" transform="matrix(-0.809016994374947 -0.587785252292473 0.587785252292473 -0.809016994374947 6.03961325396085e-14 7.105427357601e-14)" fill="none">
    <g id="b_58ec0529" fill="none">
     <path id="a_7b0fdaf2" transform="matrix(0.951056516295154 0.309016994374947 -0.309016994374947 0.951056516295154 -9.9475983006414e-14 -17.0000000000001)" fill="#ffffff" stroke-opacity="0" stroke="#000000" stroke-width="0" stroke-linecap="square" stroke-linejoin="bevel" d="M0 0L0 17L8.5 17" sodipodi:nodetypes="ccc"/>
     <g id="group7" transform="matrix(-1 3.33066907387547e-16 3.33066907387547e-16 1 1.06581410364015e-13 7.105427357601e-14)" fill="none">
      <path id="a_6cf77a6c" transform="matrix(0.951056516295154 0.309016994374947 -0.309016994374947 0.951056516295154 -4.2632564145606e-14 -17.0000000000001)" fill="#ffffff" stroke-opacity="0" stroke="#000000" stroke-width="0" stroke-linecap="square" stroke-linejoin="bevel" d="M0 0L0 17L8.5 17" sodipodi:nodetypes="ccc"/>
     </g>
    </g>
   </g>
   <g id="group8" transform="matrix(0.309016994374947 -0.951056516295154 0.951056516295154 0.309016994374947 -1.66977542903624e-13 -1.06581410364015e-13)" fill="none">
    <g id="b_4eea1867" fill="none">
     <path id="a_2adbdda5" transform="matrix(0.951056516295154 0.309016994374947 -0.309016994374947 0.951056516295154 7.105427357601e-15 -17.0000000000001)" fill="#ffffff" stroke-opacity="0" stroke="#000000" stroke-width="0" stroke-linecap="square" stroke-linejoin="bevel" d="M0 0L0 17L8.5 17" sodipodi:nodetypes="ccc"/>
     <g id="group9" transform="matrix(-1 2.22044604925031e-16 2.22044604925031e-16 1 1.06581410364015e-14 -8.5265128291212e-14)" fill="none">
      <path id="a_20857150" transform="matrix(0.951056516295154 0.309016994374948 -0.309016994374948 0.951056516295154 6.03961325396085e-14 -17)" fill="#ffffff" stroke-opacity="0" stroke="#000000" stroke-width="0" stroke-linecap="square" stroke-linejoin="bevel" d="M0 0L0 17L8.5 17" sodipodi:nodetypes="ccc"/>
     </g>
    </g>
   </g>
  </g>
  <g id="group10" transform="matrix(-0.5 0.866025403784438 -0.866025403784438 -0.5 -6.03961325396085e-14 -3.5527136788005e-15)" fill="none">
   <g id="d_5778d838" transform="matrix(0.951056516295153 0.309016994374947 -0.309016994374947 0.951056516295153 -5.71680453329867 17.5944832812159)" fill="none">
    <g id="b_2ca4b7fd" fill="none">
     <path id="a_6ce5c0ed" transform="matrix(0.951056516295154 0.309016994374947 -0.309016994374947 0.951056516295154 -1.17239551400417e-13 -17.0000000000001)" fill="#ffffff" stroke-opacity="0" stroke="#000000" stroke-width="0" stroke-linecap="square" stroke-linejoin="bevel" d="M0 0L0 17L8.5 17" sodipodi:nodetypes="ccc"/>
     <g id="group11" transform="matrix(-1 -1.11022302462516e-16 -1.11022302462516e-16 1 -3.5527136788005e-15 -3.5527136788005e-15)" fill="none">
      <path id="a_6cfec0ec" transform="matrix(0.951056516295154 0.309016994374948 -0.309016994374948 0.951056516295154 -2.27373675443232e-13 -17.0000000000001)" fill="#ffffff" stroke-opacity="0" stroke="#000000" stroke-width="0" stroke-linecap="square" stroke-linejoin="bevel" d="M0 0L0 17L8.5 17" sodipodi:nodetypes="ccc"/>
     </g>
    </g>
    <g id="group12" transform="matrix(0.309016994374948 0.951056516295153 -0.951056516295153 0.309016994374948 -1.13686837721616e-13 -2.48689957516035e-14)" fill="none">
     <g id="b_75ef27e6" fill="none">
      <path id="a_5ccb3e55" transform="matrix(0.951056516295153 0.309016994374947 -0.309016994374947 0.951056516295153 3.5527136788005e-15 -17)" fill="#ffffff" stroke-opacity="0" stroke="#000000" stroke-width="0" stroke-linecap="square" stroke-linejoin="bevel" d="M0 0L0 17L8.5 17" sodipodi:nodetypes="ccc"/>
      <g id="group13" transform="matrix(-1 -2.77555756156289e-16 -2.77555756156289e-16 1 -5.6843418860808e-14 -2.48689957516035e-14)" fill="none">
       <path id="a_6663ceb5" transform="matrix(0.951056516295154 0.309016994374948 -0.309016994374948 0.951056516295154 -1.20792265079217e-13 -17)" fill="#ffffff" stroke-opacity="0" stroke="#000000" stroke-width="0" stroke-linecap="square" stroke-linejoin="bevel" d="M0 0L0 17L8.5 17" sodipodi:nodetypes="ccc"/>
      </g>
     </g>
    </g>
    <g id="group14" transform="matrix(-0.809016994374947 0.587785252292473 -0.587785252292473 -0.809016994374947 -4.9737991503207e-14 -7.8159700933611e-14)" fill="none">
     <g id="b_2cb0a5f8" fill="none">
      <path id="a_5d4acaf9" transform="matrix(0.951056516295153 0.309016994374947 -0.309016994374947 0.951056516295153 -3.73034936274053e-14 -17)" fill="#ffffff" stroke-opacity="0" stroke="#000000" stroke-width="0" stroke-linecap="square" stroke-linejoin="bevel" d="M0 0L0 17L8.5 17" sodipodi:nodetypes="ccc"/>
      <g id="group15" transform="matrix(-1 -2.77555756156289e-17 -2.77555756156289e-17 1 -5.32907051820075e-14 -9.2370555648813e-14)" fill="none">
       <path id="a_7e620e3b" transform="matrix(0.951056516295153 0.309016994374947 -0.309016994374947 0.951056516295153 8.17124146124115e-14 -17)" fill="#ffffff" stroke-opacity="0" stroke="#000000" stroke-width="0" stroke-linecap="square" stroke-linejoin="bevel" d="M0 0L0 17L8.5 17" sodipodi:nodetypes="ccc"/>
      </g>
     </g>
    </g>
    <g id="group16" transform="matrix(-0.809016994374947 -0.587785252292473 0.587785252292473 -0.809016994374947 6.03961325396085e-14 6.03961325396085e-14)" fill="none">
     <g id="b_413e39f1" fill="none">
      <path id="a_745d8263" transform="matrix(0.951056516295153 0.309016994374947 -0.309016994374947 0.951056516295153 3.5527136788005e-15 -17)" fill="#ffffff" stroke-opacity="0" stroke="#000000" stroke-width="0" stroke-linecap="square" stroke-linejoin="bevel" d="M0 0L0 17L8.5 17" sodipodi:nodetypes="ccc"/>
      <g id="group17" transform="matrix(-1 0 0 1 -3.5527136788005e-15 3.5527136788005e-14)" fill="none">
       <path id="a_25e2e67a" transform="matrix(0.951056516295154 0.309016994374947 -0.309016994374947 0.951056516295154 0 -17)" fill="#ffffff" stroke-opacity="0" stroke="#000000" stroke-width="0" stroke-linecap="square" stroke-linejoin="bevel" d="M0 0L0 17L8.5 17" sodipodi:nodetypes="ccc"/>
      </g>
     </g>
    </g>
    <g id="group18" transform="matrix(0.309016994374947 -0.951056516295154 0.951056516295154 0.309016994374947 0 3.5527136788005e-15)" fill="none">
     <g id="b_39da0c7c" fill="none">
      <path id="a_5179e9f0" transform="matrix(0.951056516295154 0.309016994374948 -0.309016994374948 0.951056516295154 5.6843418860808e-14 -17)" fill="#ffffff" stroke-opacity="0" stroke="#000000" stroke-width="0" stroke-linecap="square" stroke-linejoin="bevel" d="M0 0L0 17L8.5 17" sodipodi:nodetypes="ccc"/>
      <g id="group19" transform="matrix(-1 -1.11022302462516e-16 -1.11022302462516e-16 1 0 7.105427357601e-15)" fill="none">
       <path id="a_59cf13fd" transform="matrix(0.951056516295153 0.309016994374947 -0.309016994374947 0.951056516295153 -7.105427357601e-15 -17)" fill="#ffffff" stroke-opacity="0" stroke="#000000" stroke-width="0" stroke-linecap="square" stroke-linejoin="bevel" d="M0 0L0 17L8.5 17" sodipodi:nodetypes="ccc"/>
      </g>
     </g>
    </g>
   </g>
  </g>
  <g id="group20" transform="matrix(-0.5 -0.866025403784438 0.866025403784438 -0.5 -3.5527136788005e-15 4.61852778244065e-14)" fill="none">
   <g id="d_4315c9bb" transform="matrix(0.951056516295153 0.309016994374947 -0.309016994374947 0.951056516295153 -5.71680453329861 17.5944832812158)" fill="none">
    <g id="b_1f22f64c" fill="none">
     <path id="a_65286500" transform="matrix(0.951056516295154 0.309016994374947 -0.309016994374947 0.951056516295154 -5.6843418860808e-14 -16.9999999999999)" fill="#ffffff" stroke-opacity="0" stroke="#000000" stroke-width="0" stroke-linecap="square" stroke-linejoin="bevel" d="M0 0L0 17L8.5 17" sodipodi:nodetypes="ccc"/>
     <g id="group21" transform="matrix(-1 -5.55111512312578e-17 -5.55111512312578e-17 1 1.63424829224823e-13 2.48689957516035e-14)" fill="none">
      <path id="a_53af1a74" transform="matrix(0.951056516295153 0.309016994374947 -0.309016994374947 0.951056516295153 1.06581410364015e-13 -16.9999999999999)" fill="#ffffff" stroke-opacity="0" stroke="#000000" stroke-width="0" stroke-linecap="square" stroke-linejoin="bevel" d="M0 0L0 17L8.5 17" sodipodi:nodetypes="ccc"/>
     </g>
    </g>
    <g id="group22" transform="matrix(0.309016994374947 0.951056516295153 -0.951056516295153 0.309016994374947 4.9737991503207e-14 -6.3948846218409e-14)" fill="none">
     <g id="b_32514025" fill="none">
      <path id="a_5902c077" transform="matrix(0.951056516295153 0.309016994374947 -0.309016994374947 0.951056516295153 5.6843418860808e-14 -17.0000000000001)" fill="#ffffff" stroke-opacity="0" stroke="#000000" stroke-width="0" stroke-linecap="square" stroke-linejoin="bevel" d="M0 0L0 17L8.5 17" sodipodi:nodetypes="ccc"/>
      <g id="group23" transform="matrix(-1 -5.55111512312578e-17 -5.55111512312578e-17 1 5.6843418860808e-14 -9.9475983006414e-14)" fill="none">
       <path id="a_20455a8e" transform="matrix(0.951056516295153 0.309016994374947 -0.309016994374947 0.951056516295153 6.3948846218409e-14 -17)" fill="#ffffff" stroke-opacity="0" stroke="#000000" stroke-width="0" stroke-linecap="square" stroke-linejoin="bevel" d="M0 0L0 17L8.5 17" sodipodi:nodetypes="ccc"/>
      </g>
     </g>
    </g>
    <g id="group24" transform="matrix(-0.809016994374947 0.587785252292473 -0.587785252292473 -0.809016994374947 1.13686837721616e-13 5.32907051820075e-14)" fill="none">
     <g id="b_3543dd37" fill="none">
      <path id="a_102d59d7" transform="matrix(0.951056516295153 0.309016994374948 -0.309016994374948 0.951056516295153 -4.9737991503207e-14 -17)" fill="#ffffff" stroke-opacity="0" stroke="#000000" stroke-width="0" stroke-linecap="square" stroke-linejoin="bevel" d="M0 0L0 17L8.5 17" sodipodi:nodetypes="ccc"/>
      <g id="group25" transform="matrix(-1 0 0 1 1.06581410364015e-13 0)" fill="none">
       <path id="a_5c2242ce" transform="matrix(0.951056516295153 0.309016994374947 -0.309016994374947 0.951056516295153 7.105427357601e-15 -17)" fill="#ffffff" stroke-opacity="0" stroke="#000000" stroke-width="0" stroke-linecap="square" stroke-linejoin="bevel" d="M0 0L0 17L8.5 17" sodipodi:nodetypes="ccc"/>
      </g>
     </g>
    </g>
    <g id="group26" transform="matrix(-0.809016994374947 -0.587785252292473 0.587785252292473 -0.809016994374947 1.4210854715202e-14 -2.1316282072803e-14)" fill="none">
     <g id="b_505aeb72" fill="none">
      <path id="a_7b8ea3ca" transform="matrix(0.951056516295154 0.309016994374947 -0.309016994374947 0.951056516295154 1.70530256582424e-13 -17)" fill="#ffffff" stroke-opacity="0" stroke="#000000" stroke-width="0" stroke-linecap="square" stroke-linejoin="bevel" d="M0 0L0 17L8.5 17" sodipodi:nodetypes="ccc"/>
      <g id="group27" transform="matrix(-1 -5.55111512312578e-17 -5.55111512312578e-17 1 -4.9737991503207e-14 -1.31450406115619e-13)" fill="none">
       <path id="a_267efa1a" transform="matrix(0.951056516295154 0.309016994374947 -0.309016994374947 0.951056516295154 7.105427357601e-14 -17)" fill="#ffffff" stroke-opacity="0" stroke="#000000" stroke-width="0" stroke-linecap="square" stroke-linejoin="bevel" d="M0 0L0 17L8.5 17" sodipodi:nodetypes="ccc"/>
      </g>
     </g>
    </g>
    <g id="group28" transform="matrix(0.309016994374948 -0.951056516295154 0.951056516295154 0.309016994374948 5.6843418860808e-14 1.06581410364015e-14)" fill="none">
     <g id="b_6671a483" fill="none">
      <path id="a_69319268" transform="matrix(0.951056516295154 0.309016994374947 -0.309016994374947 0.951056516295154 7.105427357601e-15 -17.0000000000001)" fill="#ffffff" stroke-opacity="0" stroke="#000000" stroke-width="0" stroke-linecap="square" stroke-linejoin="bevel" d="M0 0L0 17L8.5 17" sodipodi:nodetypes="ccc"/>
      <g id="group29" transform="matrix(-1 0 0 1 5.6843418860808e-14 -3.19744231092045e-14)" fill="none">
       <path id="a_3105a363" transform="matrix(0.951056516295154 0.309016994374947 -0.309016994374947 0.951056516295154 1.4210854715202e-14 -17)" fill="#ffffff" stroke-opacity="0" stroke="#000000" stroke-width="0" stroke-linecap="square" stroke-linejoin="bevel" d="M0 0L0 17L8.5 17" sodipodi:nodetypes="ccc"/>
      </g>
     </g>
    </g>
   </g>
  </g>
 </g><text id="shape2" krita:useRichText="true" text-rendering="auto" krita:textVersion="3" transform="translate(61.499996731269, 35.5199991086622)" fill="#ffffff" stroke-opacity="0" stroke="#000000" stroke-width="0" stroke-linecap="square" stroke-linejoin="bevel" letter-spacing="0" word-spacing="0" style="text-align: start;text-align-last: auto;font-family: Millaris Personal Use Only;font-size: 20;"><tspan x="0">Mid TN Crawlspace</tspan></text>
</svg>
